solid OpenSCAD_Model
  facet normal 0.740984 -0 0.671522
    outer loop
      vertex 0.707107 -7.02 1.65711
      vertex 0.77301 7.02 1.58439
      vertex 0.707107 7.02 1.65711
    endloop
  endfacet
  facet normal 0.740984 0 0.671522
    outer loop
      vertex 0.77301 7.02 1.58439
      vertex 0.707107 -7.02 1.65711
      vertex 0.77301 -7.02 1.58439
    endloop
  endfacet
  facet normal 0.989175 -0 0.146741
    outer loop
      vertex 0.980784 -7.025 1.14509
      vertex 0.995184 7.025 1.04802
      vertex 0.980784 7.025 1.14509
    endloop
  endfacet
  facet normal 0.989175 0 0.146741
    outer loop
      vertex 0.995184 7.025 1.04802
      vertex 0.980784 -7.025 1.14509
      vertex 0.995184 -7.025 1.04802
    endloop
  endfacet
  facet normal 0.998795 -0 0.0490736
    outer loop
      vertex 0.995184 -7.025 1.04802
      vertex 1 7.025 0.95
      vertex 0.995184 7.025 1.04802
    endloop
  endfacet
  facet normal 0.998795 0 0.0490736
    outer loop
      vertex 1 7.025 0.95
      vertex 0.995184 -7.025 1.04802
      vertex 1 -7.025 0.95
    endloop
  endfacet
  facet normal 0.336885 0 -0.941546
    outer loop
      vertex 0.290284 -7.025 -0.0069397
      vertex 0.30968 -7.02 1.90735e-07
      vertex 0.30968 -7.025 1.90735e-07
    endloop
  endfacet
  facet normal 0.336885 0 -0.941546
    outer loop
      vertex 0.30968 -7.02 1.90735e-07
      vertex 0.290284 -7.025 -0.0069397
      vertex 0.30968 7.02 1.90735e-07
    endloop
  endfacet
  facet normal 0.336885 0 -0.941546
    outer loop
      vertex 0.290284 7.025 -0.0069397
      vertex 0.30968 7.02 1.90735e-07
      vertex 0.290284 -7.025 -0.0069397
    endloop
  endfacet
  facet normal 0.336885 0 -0.941546
    outer loop
      vertex 0.30968 7.02 1.90735e-07
      vertex 0.290284 7.025 -0.0069397
      vertex 0.30968 7.025 1.90735e-07
    endloop
  endfacet
  facet normal 0.336892 0 -0.941543
    outer loop
      vertex 0.30968 -7.02 1.90735e-07
      vertex 0.382683 7.02 0.0261213
      vertex 0.382683 -7.02 0.0261213
    endloop
  endfacet
  facet normal 0.336892 0 -0.941543
    outer loop
      vertex 0.382683 7.02 0.0261213
      vertex 0.30968 -7.02 1.90735e-07
      vertex 0.30968 7.02 1.90735e-07
    endloop
  endfacet
  facet normal 0.970031 -0 0.242982
    outer loop
      vertex 0.95694 -7.025 1.24028
      vertex 0.980784 7.025 1.14509
      vertex 0.95694 7.025 1.24028
    endloop
  endfacet
  facet normal 0.970031 0 0.242982
    outer loop
      vertex 0.980784 7.025 1.14509
      vertex 0.95694 -7.025 1.24028
      vertex 0.980784 -7.025 1.14509
    endloop
  endfacet
  facet normal 0.941539 0 0.336903
    outer loop
      vertex 0.923879 7.02 1.33268
      vertex 0.923879 -7.02 1.33268
      vertex 0.95 7.02 1.25968
    endloop
  endfacet
  facet normal 0.941566 -0 0.336828
    outer loop
      vertex 0.95 7.02 1.25968
      vertex 0.95694 7.025 1.24028
      vertex 0.95 7.025 1.25968
    endloop
  endfacet
  facet normal 0.941539 -0 0.336903
    outer loop
      vertex 0.95 -7.02 1.25968
      vertex 0.95 7.02 1.25968
      vertex 0.923879 -7.02 1.33268
    endloop
  endfacet
  facet normal 0.941566 0 0.336828
    outer loop
      vertex 0.95 7.02 1.25968
      vertex 0.95 -7.02 1.25968
      vertex 0.95694 7.025 1.24028
    endloop
  endfacet
  facet normal 0.941566 0 0.336828
    outer loop
      vertex 0.95694 -7.025 1.24028
      vertex 0.95 -7.02 1.25968
      vertex 0.95 -7.025 1.25968
    endloop
  endfacet
  facet normal 0.941566 0 0.336828
    outer loop
      vertex 0.95 -7.02 1.25968
      vertex 0.95694 -7.025 1.24028
      vertex 0.95694 7.025 1.24028
    endloop
  endfacet
  facet normal 0.242934 0 0.970043
    outer loop
      vertex 0.19509 7.025 1.93078
      vertex 0.290284 -7.025 1.90694
      vertex 0.290284 7.025 1.90694
    endloop
  endfacet
  facet normal 0.242934 0 0.970043
    outer loop
      vertex 0.290284 -7.025 1.90694
      vertex 0.19509 7.025 1.93078
      vertex 0.19509 -7.025 1.93078
    endloop
  endfacet
  facet normal 0.242979 0 -0.970032
    outer loop
      vertex 0.19509 -7.025 -0.0307844
      vertex 0.290284 7.025 -0.0069397
      vertex 0.290284 -7.025 -0.0069397
    endloop
  endfacet
  facet normal 0.242979 0 -0.970032
    outer loop
      vertex 0.290284 7.025 -0.0069397
      vertex 0.19509 -7.025 -0.0307844
      vertex 0.19509 7.025 -0.0307844
    endloop
  endfacet
  facet normal 0.857733 0 -0.514096
    outer loop
      vertex 0.881921 -7.02 0.478604
      vertex 0.83147 7.02 0.39443
      vertex 0.881921 7.02 0.478604
    endloop
  endfacet
  facet normal 0.857733 0 -0.514096
    outer loop
      vertex 0.83147 7.02 0.39443
      vertex 0.881921 -7.02 0.478604
      vertex 0.83147 -7.02 0.39443
    endloop
  endfacet
  facet normal 0.146731 0 -0.989176
    outer loop
      vertex 0.0980167 -7.025 -0.0451839
      vertex 0.19509 7.025 -0.0307844
      vertex 0.19509 -7.025 -0.0307844
    endloop
  endfacet
  facet normal 0.146731 0 -0.989176
    outer loop
      vertex 0.19509 7.025 -0.0307844
      vertex 0.0980167 -7.025 -0.0451839
      vertex 0.0980167 7.025 -0.0451839
    endloop
  endfacet
  facet normal 0.0490763 0 -0.998795
    outer loop
      vertex 0 -7.025 -0.05
      vertex 0.0980167 7.025 -0.0451839
      vertex 0.0980167 -7.025 -0.0451839
    endloop
  endfacet
  facet normal 0.0490763 0 -0.998795
    outer loop
      vertex 0.0980167 7.025 -0.0451839
      vertex 0 -7.025 -0.05
      vertex 0 7.025 -0.05
    endloop
  endfacet
  facet normal 0.514088 0 0.857737
    outer loop
      vertex 0.471396 7.02 1.83192
      vertex 0.55557 -7.02 1.78147
      vertex 0.55557 7.02 1.78147
    endloop
  endfacet
  facet normal 0.514088 0 0.857737
    outer loop
      vertex 0.55557 -7.02 1.78147
      vertex 0.471396 7.02 1.83192
      vertex 0.471396 -7.02 1.83192
    endloop
  endfacet
  facet normal 0.427571 0 0.903982
    outer loop
      vertex 0.382683 7.02 1.87388
      vertex 0.471396 -7.02 1.83192
      vertex 0.471396 7.02 1.83192
    endloop
  endfacet
  facet normal 0.427571 0 0.903982
    outer loop
      vertex 0.471396 -7.02 1.83192
      vertex 0.382683 7.02 1.87388
      vertex 0.382683 -7.02 1.87388
    endloop
  endfacet
  facet normal 0.427553 0 -0.90399
    outer loop
      vertex 0.382683 -7.02 0.0261213
      vertex 0.471396 7.02 0.0680792
      vertex 0.471396 -7.02 0.0680792
    endloop
  endfacet
  facet normal 0.427553 0 -0.90399
    outer loop
      vertex 0.471396 7.02 0.0680792
      vertex 0.382683 -7.02 0.0261213
      vertex 0.382683 7.02 0.0261213
    endloop
  endfacet
  facet normal -0.595705 0 -0.803203
    outer loop
      vertex -0.634393 -7.02 0.17699
      vertex -0.55557 7.02 0.11853
      vertex -0.55557 -7.02 0.11853
    endloop
  endfacet
  facet normal -0.595705 0 -0.803203
    outer loop
      vertex -0.55557 7.02 0.11853
      vertex -0.634393 -7.02 0.17699
      vertex -0.634393 7.02 0.17699
    endloop
  endfacet
  facet normal -0.904003 0 0.427526
    outer loop
      vertex -0.923879 -7.02 1.33268
      vertex -0.881921 7.02 1.4214
      vertex -0.923879 7.02 1.33268
    endloop
  endfacet
  facet normal -0.904003 0 0.427526
    outer loop
      vertex -0.881921 7.02 1.4214
      vertex -0.923879 -7.02 1.33268
      vertex -0.881921 -7.02 1.4214
    endloop
  endfacet
  facet normal 0.989176 0 -0.146736
    outer loop
      vertex 0.995184 -7.025 0.851983
      vertex 0.980784 7.025 0.75491
      vertex 0.995184 7.025 0.851983
    endloop
  endfacet
  facet normal 0.989176 0 -0.146736
    outer loop
      vertex 0.980784 7.025 0.75491
      vertex 0.995184 -7.025 0.851983
      vertex 0.980784 -7.025 0.75491
    endloop
  endfacet
  facet normal 0.514094 0 -0.857734
    outer loop
      vertex 0.471396 -7.02 0.0680792
      vertex 0.55557 7.02 0.11853
      vertex 0.55557 -7.02 0.11853
    endloop
  endfacet
  facet normal 0.514094 0 -0.857734
    outer loop
      vertex 0.55557 7.02 0.11853
      vertex 0.471396 -7.02 0.0680792
      vertex 0.471396 7.02 0.0680792
    endloop
  endfacet
  facet normal -0.595705 0 0.803203
    outer loop
      vertex -0.634393 7.02 1.72301
      vertex -0.55557 -7.02 1.78147
      vertex -0.55557 7.02 1.78147
    endloop
  endfacet
  facet normal -0.595705 0 0.803203
    outer loop
      vertex -0.55557 -7.02 1.78147
      vertex -0.634393 7.02 1.72301
      vertex -0.634393 -7.02 1.72301
    endloop
  endfacet
  facet normal -0.0490763 0 -0.998795
    outer loop
      vertex -0.0980167 -7.025 -0.0451839
      vertex 0 7.025 -0.05
      vertex 0 -7.025 -0.05
    endloop
  endfacet
  facet normal -0.0490763 0 -0.998795
    outer loop
      vertex 0 7.025 -0.05
      vertex -0.0980167 -7.025 -0.0451839
      vertex -0.0980167 7.025 -0.0451839
    endloop
  endfacet
  facet normal 0.671536 0 0.740972
    outer loop
      vertex 0.634393 7.02 1.72301
      vertex 0.707107 -7.02 1.65711
      vertex 0.707107 7.02 1.65711
    endloop
  endfacet
  facet normal 0.671536 0 0.740972
    outer loop
      vertex 0.707107 -7.02 1.65711
      vertex 0.634393 7.02 1.72301
      vertex 0.634393 -7.02 1.72301
    endloop
  endfacet
  facet normal 0.595705 0 0.803203
    outer loop
      vertex 0.55557 7.02 1.78147
      vertex 0.634393 -7.02 1.72301
      vertex 0.634393 7.02 1.72301
    endloop
  endfacet
  facet normal 0.595705 0 0.803203
    outer loop
      vertex 0.634393 -7.02 1.72301
      vertex 0.55557 7.02 1.78147
      vertex 0.55557 -7.02 1.78147
    endloop
  endfacet
  facet normal 0.857722 -0 0.514114
    outer loop
      vertex 0.83147 -7.02 1.50557
      vertex 0.881921 7.02 1.4214
      vertex 0.83147 7.02 1.50557
    endloop
  endfacet
  facet normal 0.857722 0 0.514114
    outer loop
      vertex 0.881921 7.02 1.4214
      vertex 0.83147 -7.02 1.50557
      vertex 0.881921 -7.02 1.4214
    endloop
  endfacet
  facet normal -0.970033 0 -0.242972
    outer loop
      vertex -0.95694 -7.025 0.659716
      vertex -0.980784 7.025 0.75491
      vertex -0.95694 7.025 0.659716
    endloop
  endfacet
  facet normal -0.970033 -0 -0.242972
    outer loop
      vertex -0.980784 7.025 0.75491
      vertex -0.95694 -7.025 0.659716
      vertex -0.980784 -7.025 0.75491
    endloop
  endfacet
  facet normal -0.90399 0 -0.427554
    outer loop
      vertex -0.881921 -7.02 0.478604
      vertex -0.923879 7.02 0.567317
      vertex -0.881921 7.02 0.478604
    endloop
  endfacet
  facet normal -0.90399 -0 -0.427554
    outer loop
      vertex -0.923879 7.02 0.567317
      vertex -0.881921 -7.02 0.478604
      vertex -0.923879 -7.02 0.567317
    endloop
  endfacet
  facet normal 0.146736 0 0.989176
    outer loop
      vertex 0.0980167 7.025 1.94518
      vertex 0.19509 -7.025 1.93078
      vertex 0.19509 7.025 1.93078
    endloop
  endfacet
  facet normal 0.146736 0 0.989176
    outer loop
      vertex 0.19509 -7.025 1.93078
      vertex 0.0980167 7.025 1.94518
      vertex 0.0980167 -7.025 1.94518
    endloop
  endfacet
  facet normal -0.242979 0 -0.970032
    outer loop
      vertex -0.290284 -7.025 -0.0069397
      vertex -0.19509 7.025 -0.0307844
      vertex -0.19509 -7.025 -0.0307844
    endloop
  endfacet
  facet normal -0.242979 0 -0.970032
    outer loop
      vertex -0.19509 7.025 -0.0307844
      vertex -0.290284 -7.025 -0.0069397
      vertex -0.290284 7.025 -0.0069397
    endloop
  endfacet
  facet normal -0.427571 0 0.903982
    outer loop
      vertex -0.471396 7.02 1.83192
      vertex -0.382683 -7.02 1.87388
      vertex -0.382683 7.02 1.87388
    endloop
  endfacet
  facet normal -0.427571 0 0.903982
    outer loop
      vertex -0.382683 -7.02 1.87388
      vertex -0.471396 7.02 1.83192
      vertex -0.471396 -7.02 1.83192
    endloop
  endfacet
  facet normal -0.941544 -0 -0.336891
    outer loop
      vertex -0.923879 7.02 0.567317
      vertex -0.923879 -7.02 0.567317
      vertex -0.95 7.02 0.64032
    endloop
  endfacet
  facet normal -0.941544 0 -0.33689
    outer loop
      vertex -0.95 7.02 0.64032
      vertex -0.95694 7.025 0.659716
      vertex -0.95 7.025 0.64032
    endloop
  endfacet
  facet normal -0.941544 0 -0.336891
    outer loop
      vertex -0.95 -7.02 0.64032
      vertex -0.95 7.02 0.64032
      vertex -0.923879 -7.02 0.567317
    endloop
  endfacet
  facet normal -0.941544 -0 -0.33689
    outer loop
      vertex -0.95 7.02 0.64032
      vertex -0.95 -7.02 0.64032
      vertex -0.95694 7.025 0.659716
    endloop
  endfacet
  facet normal -0.941544 0 -0.33689
    outer loop
      vertex -0.95694 -7.025 0.659716
      vertex -0.95 -7.02 0.64032
      vertex -0.95 -7.025 0.64032
    endloop
  endfacet
  facet normal -0.941544 0 -0.33689
    outer loop
      vertex -0.95 -7.02 0.64032
      vertex -0.95694 -7.025 0.659716
      vertex -0.95694 7.025 0.659716
    endloop
  endfacet
  facet normal 0.90399 0 -0.427554
    outer loop
      vertex 0.923879 -7.02 0.567317
      vertex 0.881921 7.02 0.478604
      vertex 0.923879 7.02 0.567317
    endloop
  endfacet
  facet normal 0.90399 0 -0.427554
    outer loop
      vertex 0.881921 7.02 0.478604
      vertex 0.923879 -7.02 0.567317
      vertex 0.881921 -7.02 0.478604
    endloop
  endfacet
  facet normal -0.146736 0 0.989176
    outer loop
      vertex -0.19509 7.025 1.93078
      vertex -0.0980167 -7.025 1.94518
      vertex -0.0980167 7.025 1.94518
    endloop
  endfacet
  facet normal -0.146736 0 0.989176
    outer loop
      vertex -0.0980167 -7.025 1.94518
      vertex -0.19509 7.025 1.93078
      vertex -0.19509 -7.025 1.93078
    endloop
  endfacet
  facet normal -0.242934 0 0.970043
    outer loop
      vertex -0.290284 7.025 1.90694
      vertex -0.19509 -7.025 1.93078
      vertex -0.19509 7.025 1.93078
    endloop
  endfacet
  facet normal -0.242934 0 0.970043
    outer loop
      vertex -0.19509 -7.025 1.93078
      vertex -0.290284 7.025 1.90694
      vertex -0.290284 -7.025 1.90694
    endloop
  endfacet
  facet normal 0.970033 0 -0.242972
    outer loop
      vertex 0.980784 -7.025 0.75491
      vertex 0.95694 7.025 0.659716
      vertex 0.980784 7.025 0.75491
    endloop
  endfacet
  facet normal 0.970033 0 -0.242972
    outer loop
      vertex 0.95694 7.025 0.659716
      vertex 0.980784 -7.025 0.75491
      vertex 0.95694 -7.025 0.659716
    endloop
  endfacet
  facet normal 0.803203 0 -0.595705
    outer loop
      vertex 0.83147 -7.02 0.39443
      vertex 0.77301 7.02 0.315607
      vertex 0.83147 7.02 0.39443
    endloop
  endfacet
  facet normal 0.803203 0 -0.595705
    outer loop
      vertex 0.77301 7.02 0.315607
      vertex 0.83147 -7.02 0.39443
      vertex 0.77301 -7.02 0.315607
    endloop
  endfacet
  facet normal -0.998795 0 0.0490736
    outer loop
      vertex -1 -7.025 0.95
      vertex -0.995184 7.025 1.04802
      vertex -1 7.025 0.95
    endloop
  endfacet
  facet normal -0.998795 0 0.0490736
    outer loop
      vertex -0.995184 7.025 1.04802
      vertex -1 -7.025 0.95
      vertex -0.995184 -7.025 1.04802
    endloop
  endfacet
  facet normal 0.740957 0 -0.671553
    outer loop
      vertex 0.77301 -7.02 0.315607
      vertex 0.707107 7.02 0.242893
      vertex 0.77301 7.02 0.315607
    endloop
  endfacet
  facet normal 0.740957 0 -0.671553
    outer loop
      vertex 0.707107 7.02 0.242893
      vertex 0.77301 -7.02 0.315607
      vertex 0.707107 -7.02 0.242893
    endloop
  endfacet
  facet normal 0.803192 -0 0.59572
    outer loop
      vertex 0.77301 -7.02 1.58439
      vertex 0.83147 7.02 1.50557
      vertex 0.77301 7.02 1.58439
    endloop
  endfacet
  facet normal 0.803192 0 0.59572
    outer loop
      vertex 0.83147 7.02 1.50557
      vertex 0.77301 -7.02 1.58439
      vertex 0.83147 -7.02 1.50557
    endloop
  endfacet
  facet normal 0.0491159 0 0.998793
    outer loop
      vertex 0 7.025 1.95
      vertex 0.0980167 -7.025 1.94518
      vertex 0.0980167 7.025 1.94518
    endloop
  endfacet
  facet normal 0.0491159 0 0.998793
    outer loop
      vertex 0.0980167 -7.025 1.94518
      vertex 0 7.025 1.95
      vertex 0 -7.025 1.95
    endloop
  endfacet
  facet normal 0.904003 -0 0.427526
    outer loop
      vertex 0.881921 -7.02 1.4214
      vertex 0.923879 7.02 1.33268
      vertex 0.881921 7.02 1.4214
    endloop
  endfacet
  facet normal 0.904003 0 0.427526
    outer loop
      vertex 0.923879 7.02 1.33268
      vertex 0.881921 -7.02 1.4214
      vertex 0.923879 -7.02 1.33268
    endloop
  endfacet
  facet normal -0.514088 0 0.857737
    outer loop
      vertex -0.55557 7.02 1.78147
      vertex -0.471396 -7.02 1.83192
      vertex -0.471396 7.02 1.83192
    endloop
  endfacet
  facet normal -0.514088 0 0.857737
    outer loop
      vertex -0.471396 -7.02 1.83192
      vertex -0.55557 7.02 1.78147
      vertex -0.55557 -7.02 1.78147
    endloop
  endfacet
  facet normal -0.857722 0 0.514114
    outer loop
      vertex -0.881921 -7.02 1.4214
      vertex -0.83147 7.02 1.50557
      vertex -0.881921 7.02 1.4214
    endloop
  endfacet
  facet normal -0.857722 0 0.514114
    outer loop
      vertex -0.83147 7.02 1.50557
      vertex -0.881921 -7.02 1.4214
      vertex -0.83147 -7.02 1.50557
    endloop
  endfacet
  facet normal -0.671536 0 0.740972
    outer loop
      vertex -0.707107 7.02 1.65711
      vertex -0.634393 -7.02 1.72301
      vertex -0.634393 7.02 1.72301
    endloop
  endfacet
  facet normal -0.671536 0 0.740972
    outer loop
      vertex -0.634393 -7.02 1.72301
      vertex -0.707107 7.02 1.65711
      vertex -0.707107 -7.02 1.65711
    endloop
  endfacet
  facet normal 0.998795 0 -0.0490751
    outer loop
      vertex 1 -7.025 0.95
      vertex 0.995184 7.025 0.851983
      vertex 1 7.025 0.95
    endloop
  endfacet
  facet normal 0.998795 0 -0.0490751
    outer loop
      vertex 0.995184 7.025 0.851983
      vertex 1 -7.025 0.95
      vertex 0.995184 -7.025 0.851983
    endloop
  endfacet
  facet normal 0.941544 0 -0.33689
    outer loop
      vertex 0.95694 7.025 0.659716
      vertex 0.95 7.02 0.64032
      vertex 0.95 7.025 0.64032
    endloop
  endfacet
  facet normal 0.941544 0 -0.336891
    outer loop
      vertex 0.95 7.02 0.64032
      vertex 0.95 -7.02 0.64032
      vertex 0.923879 7.02 0.567317
    endloop
  endfacet
  facet normal 0.941544 0 -0.33689
    outer loop
      vertex 0.95694 7.025 0.659716
      vertex 0.95 -7.02 0.64032
      vertex 0.95 7.02 0.64032
    endloop
  endfacet
  facet normal 0.941544 0 -0.33689
    outer loop
      vertex 0.95694 -7.025 0.659716
      vertex 0.95 -7.02 0.64032
      vertex 0.95694 7.025 0.659716
    endloop
  endfacet
  facet normal 0.941544 0 -0.33689
    outer loop
      vertex 0.95 -7.02 0.64032
      vertex 0.95694 -7.025 0.659716
      vertex 0.95 -7.025 0.64032
    endloop
  endfacet
  facet normal 0.941544 0 -0.336891
    outer loop
      vertex 0.923879 7.02 0.567317
      vertex 0.95 -7.02 0.64032
      vertex 0.923879 -7.02 0.567317
    endloop
  endfacet
  facet normal -0.740984 0 0.671522
    outer loop
      vertex -0.77301 -7.02 1.58439
      vertex -0.707107 7.02 1.65711
      vertex -0.77301 7.02 1.58439
    endloop
  endfacet
  facet normal -0.740984 0 0.671522
    outer loop
      vertex -0.707107 7.02 1.65711
      vertex -0.77301 -7.02 1.58439
      vertex -0.707107 -7.02 1.65711
    endloop
  endfacet
  facet normal 0.33689 0 0.941544
    outer loop
      vertex 0.290284 7.025 1.90694
      vertex 0.30968 7.02 1.9
      vertex 0.30968 7.025 1.9
    endloop
  endfacet
  facet normal 0.33689 0 0.941544
    outer loop
      vertex 0.30968 7.02 1.9
      vertex 0.290284 7.025 1.90694
      vertex 0.30968 -7.02 1.9
    endloop
  endfacet
  facet normal 0.33689 -0 0.941544
    outer loop
      vertex 0.290284 -7.025 1.90694
      vertex 0.30968 -7.02 1.9
      vertex 0.290284 7.025 1.90694
    endloop
  endfacet
  facet normal 0.33689 0 0.941544
    outer loop
      vertex 0.30968 -7.02 1.9
      vertex 0.290284 -7.025 1.90694
      vertex 0.30968 -7.025 1.9
    endloop
  endfacet
  facet normal 0.33688 0 0.941548
    outer loop
      vertex 0.30968 7.02 1.9
      vertex 0.382683 -7.02 1.87388
      vertex 0.382683 7.02 1.87388
    endloop
  endfacet
  facet normal 0.33688 0 0.941548
    outer loop
      vertex 0.382683 -7.02 1.87388
      vertex 0.30968 7.02 1.9
      vertex 0.30968 -7.02 1.9
    endloop
  endfacet
  facet normal -0.740957 0 -0.671553
    outer loop
      vertex -0.707107 -7.02 0.242893
      vertex -0.77301 7.02 0.315607
      vertex -0.707107 7.02 0.242893
    endloop
  endfacet
  facet normal -0.740957 -0 -0.671553
    outer loop
      vertex -0.77301 7.02 0.315607
      vertex -0.707107 -7.02 0.242893
      vertex -0.77301 -7.02 0.315607
    endloop
  endfacet
  facet normal -0.857733 0 -0.514096
    outer loop
      vertex -0.83147 -7.02 0.39443
      vertex -0.881921 7.02 0.478604
      vertex -0.83147 7.02 0.39443
    endloop
  endfacet
  facet normal -0.857733 -0 -0.514096
    outer loop
      vertex -0.881921 7.02 0.478604
      vertex -0.83147 -7.02 0.39443
      vertex -0.881921 -7.02 0.478604
    endloop
  endfacet
  facet normal -0.33688 0 0.941548
    outer loop
      vertex -0.382683 7.02 1.87388
      vertex -0.30968 -7.02 1.9
      vertex -0.30968 7.02 1.9
    endloop
  endfacet
  facet normal -0.33688 0 0.941548
    outer loop
      vertex -0.30968 -7.02 1.9
      vertex -0.382683 7.02 1.87388
      vertex -0.382683 -7.02 1.87388
    endloop
  endfacet
  facet normal -0.33689 0 0.941544
    outer loop
      vertex -0.30968 7.02 1.9
      vertex -0.290284 7.025 1.90694
      vertex -0.30968 7.025 1.9
    endloop
  endfacet
  facet normal -0.33689 0 0.941544
    outer loop
      vertex -0.290284 7.025 1.90694
      vertex -0.30968 7.02 1.9
      vertex -0.290284 -7.025 1.90694
    endloop
  endfacet
  facet normal -0.33689 0 0.941544
    outer loop
      vertex -0.30968 -7.02 1.9
      vertex -0.290284 -7.025 1.90694
      vertex -0.30968 7.02 1.9
    endloop
  endfacet
  facet normal -0.33689 0 0.941544
    outer loop
      vertex -0.290284 -7.025 1.90694
      vertex -0.30968 -7.02 1.9
      vertex -0.30968 -7.025 1.9
    endloop
  endfacet
  facet normal -0.514094 0 -0.857734
    outer loop
      vertex -0.55557 -7.02 0.11853
      vertex -0.471396 7.02 0.0680792
      vertex -0.471396 -7.02 0.0680792
    endloop
  endfacet
  facet normal -0.514094 0 -0.857734
    outer loop
      vertex -0.471396 7.02 0.0680792
      vertex -0.55557 -7.02 0.11853
      vertex -0.55557 7.02 0.11853
    endloop
  endfacet
  facet normal 0.595705 0 -0.803203
    outer loop
      vertex 0.55557 -7.02 0.11853
      vertex 0.634393 7.02 0.17699
      vertex 0.634393 -7.02 0.17699
    endloop
  endfacet
  facet normal 0.595705 0 -0.803203
    outer loop
      vertex 0.634393 7.02 0.17699
      vertex 0.55557 -7.02 0.11853
      vertex 0.55557 7.02 0.11853
    endloop
  endfacet
  facet normal -0.0491159 0 0.998793
    outer loop
      vertex -0.0980167 7.025 1.94518
      vertex 0 -7.025 1.95
      vertex 0 7.025 1.95
    endloop
  endfacet
  facet normal -0.0491159 0 0.998793
    outer loop
      vertex 0 -7.025 1.95
      vertex -0.0980167 7.025 1.94518
      vertex -0.0980167 -7.025 1.94518
    endloop
  endfacet
  facet normal -0.970031 0 0.242982
    outer loop
      vertex -0.980784 -7.025 1.14509
      vertex -0.95694 7.025 1.24028
      vertex -0.980784 7.025 1.14509
    endloop
  endfacet
  facet normal -0.970031 0 0.242982
    outer loop
      vertex -0.95694 7.025 1.24028
      vertex -0.980784 -7.025 1.14509
      vertex -0.95694 -7.025 1.24028
    endloop
  endfacet
  facet normal -0.941566 0 0.336828
    outer loop
      vertex -0.95694 7.025 1.24028
      vertex -0.95 7.02 1.25968
      vertex -0.95 7.025 1.25968
    endloop
  endfacet
  facet normal -0.941539 0 0.336903
    outer loop
      vertex -0.95 7.02 1.25968
      vertex -0.95 -7.02 1.25968
      vertex -0.923879 7.02 1.33268
    endloop
  endfacet
  facet normal -0.941566 0 0.336828
    outer loop
      vertex -0.95694 7.025 1.24028
      vertex -0.95 -7.02 1.25968
      vertex -0.95 7.02 1.25968
    endloop
  endfacet
  facet normal -0.941566 0 0.336828
    outer loop
      vertex -0.95694 -7.025 1.24028
      vertex -0.95 -7.02 1.25968
      vertex -0.95694 7.025 1.24028
    endloop
  endfacet
  facet normal -0.941566 0 0.336828
    outer loop
      vertex -0.95 -7.02 1.25968
      vertex -0.95694 -7.025 1.24028
      vertex -0.95 -7.025 1.25968
    endloop
  endfacet
  facet normal -0.941539 0 0.336903
    outer loop
      vertex -0.923879 7.02 1.33268
      vertex -0.95 -7.02 1.25968
      vertex -0.923879 -7.02 1.33268
    endloop
  endfacet
  facet normal -0.803203 0 -0.595705
    outer loop
      vertex -0.77301 -7.02 0.315607
      vertex -0.83147 7.02 0.39443
      vertex -0.77301 7.02 0.315607
    endloop
  endfacet
  facet normal -0.803203 -0 -0.595705
    outer loop
      vertex -0.83147 7.02 0.39443
      vertex -0.77301 -7.02 0.315607
      vertex -0.83147 -7.02 0.39443
    endloop
  endfacet
  facet normal -0.989176 0 -0.146736
    outer loop
      vertex -0.980784 -7.025 0.75491
      vertex -0.995184 7.025 0.851983
      vertex -0.980784 7.025 0.75491
    endloop
  endfacet
  facet normal -0.989176 -0 -0.146736
    outer loop
      vertex -0.995184 7.025 0.851983
      vertex -0.980784 -7.025 0.75491
      vertex -0.995184 -7.025 0.851983
    endloop
  endfacet
  facet normal -0.998795 0 -0.0490751
    outer loop
      vertex -0.995184 -7.025 0.851983
      vertex -1 7.025 0.95
      vertex -0.995184 7.025 0.851983
    endloop
  endfacet
  facet normal -0.998795 -0 -0.0490751
    outer loop
      vertex -1 7.025 0.95
      vertex -0.995184 -7.025 0.851983
      vertex -1 -7.025 0.95
    endloop
  endfacet
  facet normal -0.671553 0 -0.740957
    outer loop
      vertex -0.707107 -7.02 0.242893
      vertex -0.634393 7.02 0.17699
      vertex -0.634393 -7.02 0.17699
    endloop
  endfacet
  facet normal -0.671553 0 -0.740957
    outer loop
      vertex -0.634393 7.02 0.17699
      vertex -0.707107 -7.02 0.242893
      vertex -0.707107 7.02 0.242893
    endloop
  endfacet
  facet normal 0 1 0
    outer loop
      vertex 0.980784 7.025 1.14509
      vertex 0.95 7.025 1.25968
      vertex 0.95694 7.025 1.24028
    endloop
  endfacet
  facet normal 0 1 0
    outer loop
      vertex 0.995184 7.025 1.04802
      vertex 0.95 7.025 1.25968
      vertex 0.980784 7.025 1.14509
    endloop
  endfacet
  facet normal 0 1 0
    outer loop
      vertex 1 7.025 0.95
      vertex 0.95 7.025 1.25968
      vertex 0.995184 7.025 1.04802
    endloop
  endfacet
  facet normal 0 1 -0
    outer loop
      vertex 0.995184 7.025 0.851983
      vertex 0.95 7.025 1.25968
      vertex 1 7.025 0.95
    endloop
  endfacet
  facet normal 0 1 -0
    outer loop
      vertex 0.980784 7.025 0.75491
      vertex 0.95 7.025 1.25968
      vertex 0.995184 7.025 0.851983
    endloop
  endfacet
  facet normal 0 1 0
    outer loop
      vertex 0.95 7.025 0.64032
      vertex 0.980784 7.025 0.75491
      vertex 0.95694 7.025 0.659716
    endloop
  endfacet
  facet normal 0 1 0
    outer loop
      vertex 0.980784 7.025 0.75491
      vertex 0.95 7.025 0.64032
      vertex 0.95 7.025 1.25968
    endloop
  endfacet
  facet normal 0 1 0
    outer loop
      vertex 0.0980167 7.025 1.94518
      vertex -0.0980167 7.025 1.94518
      vertex 0 7.025 1.95
    endloop
  endfacet
  facet normal 0 1 0
    outer loop
      vertex 0.19509 7.025 1.93078
      vertex -0.0980167 7.025 1.94518
      vertex 0.0980167 7.025 1.94518
    endloop
  endfacet
  facet normal 0 1 0
    outer loop
      vertex 0.19509 7.025 1.93078
      vertex -0.19509 7.025 1.93078
      vertex -0.0980167 7.025 1.94518
    endloop
  endfacet
  facet normal 0 1 0
    outer loop
      vertex 0.30968 7.025 1.9
      vertex 0.19509 7.025 1.93078
      vertex 0.290284 7.025 1.90694
    endloop
  endfacet
  facet normal 0 1 0
    outer loop
      vertex 0.19509 7.025 1.93078
      vertex 0.30968 7.025 1.9
      vertex -0.19509 7.025 1.93078
    endloop
  endfacet
  facet normal 0 1 0
    outer loop
      vertex -0.30968 7.025 1.9
      vertex -0.19509 7.025 1.93078
      vertex 0.30968 7.025 1.9
    endloop
  endfacet
  facet normal 0 1 0
    outer loop
      vertex -0.19509 7.025 1.93078
      vertex -0.30968 7.025 1.9
      vertex -0.290284 7.025 1.90694
    endloop
  endfacet
  facet normal 0 1 0
    outer loop
      vertex 0.19509 7.025 -0.0307844
      vertex 0.30968 7.025 1.90735e-07
      vertex 0.290284 7.025 -0.0069397
    endloop
  endfacet
  facet normal 0 1 0
    outer loop
      vertex 0.30968 7.025 1.90735e-07
      vertex 0.19509 7.025 -0.0307844
      vertex -0.30968 7.025 1.90735e-07
    endloop
  endfacet
  facet normal 0 1 -0
    outer loop
      vertex -0.19509 7.025 -0.0307844
      vertex -0.30968 7.025 1.90735e-07
      vertex 0.19509 7.025 -0.0307844
    endloop
  endfacet
  facet normal 0 1 0
    outer loop
      vertex -0.30968 7.025 1.90735e-07
      vertex -0.19509 7.025 -0.0307844
      vertex -0.290284 7.025 -0.0069397
    endloop
  endfacet
  facet normal 0 1 -0
    outer loop
      vertex 0.0980167 7.025 -0.0451839
      vertex -0.19509 7.025 -0.0307844
      vertex 0.19509 7.025 -0.0307844
    endloop
  endfacet
  facet normal 0 1 0
    outer loop
      vertex 0.0980167 7.025 -0.0451839
      vertex -0.0980167 7.025 -0.0451839
      vertex -0.19509 7.025 -0.0307844
    endloop
  endfacet
  facet normal -0 1 0
    outer loop
      vertex -0.0980167 7.025 -0.0451839
      vertex 0.0980167 7.025 -0.0451839
      vertex 0 7.025 -0.05
    endloop
  endfacet
  facet normal 0 1 0
    outer loop
      vertex -0.95 7.025 1.25968
      vertex -0.980784 7.025 1.14509
      vertex -0.95694 7.025 1.24028
    endloop
  endfacet
  facet normal 0 1 0
    outer loop
      vertex -0.95 7.025 1.25968
      vertex -0.995184 7.025 1.04802
      vertex -0.980784 7.025 1.14509
    endloop
  endfacet
  facet normal 0 1 0
    outer loop
      vertex -0.95 7.025 1.25968
      vertex -1 7.025 0.95
      vertex -0.995184 7.025 1.04802
    endloop
  endfacet
  facet normal 0 1 0
    outer loop
      vertex -0.95 7.025 1.25968
      vertex -0.995184 7.025 0.851983
      vertex -1 7.025 0.95
    endloop
  endfacet
  facet normal 0 1 0
    outer loop
      vertex -0.95 7.025 1.25968
      vertex -0.980784 7.025 0.75491
      vertex -0.995184 7.025 0.851983
    endloop
  endfacet
  facet normal 0 1 -0
    outer loop
      vertex -0.95 7.025 0.64032
      vertex -0.980784 7.025 0.75491
      vertex -0.95 7.025 1.25968
    endloop
  endfacet
  facet normal 0 1 0
    outer loop
      vertex -0.980784 7.025 0.75491
      vertex -0.95 7.025 0.64032
      vertex -0.95694 7.025 0.659716
    endloop
  endfacet
  facet normal -0.803192 0 0.59572
    outer loop
      vertex -0.83147 -7.02 1.50557
      vertex -0.77301 7.02 1.58439
      vertex -0.83147 7.02 1.50557
    endloop
  endfacet
  facet normal -0.803192 0 0.59572
    outer loop
      vertex -0.77301 7.02 1.58439
      vertex -0.83147 -7.02 1.50557
      vertex -0.77301 -7.02 1.58439
    endloop
  endfacet
  facet normal -0.146731 0 -0.989176
    outer loop
      vertex -0.19509 -7.025 -0.0307844
      vertex -0.0980167 7.025 -0.0451839
      vertex -0.0980167 -7.025 -0.0451839
    endloop
  endfacet
  facet normal -0.146731 0 -0.989176
    outer loop
      vertex -0.0980167 7.025 -0.0451839
      vertex -0.19509 -7.025 -0.0307844
      vertex -0.19509 7.025 -0.0307844
    endloop
  endfacet
  facet normal -0.989175 0 0.146741
    outer loop
      vertex -0.995184 -7.025 1.04802
      vertex -0.980784 7.025 1.14509
      vertex -0.995184 7.025 1.04802
    endloop
  endfacet
  facet normal -0.989175 0 0.146741
    outer loop
      vertex -0.980784 7.025 1.14509
      vertex -0.995184 -7.025 1.04802
      vertex -0.980784 -7.025 1.14509
    endloop
  endfacet
  facet normal -0.427553 0 -0.90399
    outer loop
      vertex -0.471396 -7.02 0.0680792
      vertex -0.382683 7.02 0.0261213
      vertex -0.382683 -7.02 0.0261213
    endloop
  endfacet
  facet normal -0.427553 0 -0.90399
    outer loop
      vertex -0.382683 7.02 0.0261213
      vertex -0.471396 -7.02 0.0680792
      vertex -0.471396 7.02 0.0680792
    endloop
  endfacet
  facet normal -0.336892 0 -0.941543
    outer loop
      vertex -0.382683 -7.02 0.0261213
      vertex -0.30968 7.02 1.90735e-07
      vertex -0.30968 -7.02 1.90735e-07
    endloop
  endfacet
  facet normal -0.336892 0 -0.941543
    outer loop
      vertex -0.30968 7.02 1.90735e-07
      vertex -0.382683 -7.02 0.0261213
      vertex -0.382683 7.02 0.0261213
    endloop
  endfacet
  facet normal -0.336885 -0 -0.941546
    outer loop
      vertex -0.30968 -7.02 1.90735e-07
      vertex -0.290284 -7.025 -0.0069397
      vertex -0.30968 -7.025 1.90735e-07
    endloop
  endfacet
  facet normal -0.336885 0 -0.941546
    outer loop
      vertex -0.290284 -7.025 -0.0069397
      vertex -0.30968 -7.02 1.90735e-07
      vertex -0.290284 7.025 -0.0069397
    endloop
  endfacet
  facet normal -0.336885 -0 -0.941546
    outer loop
      vertex -0.30968 7.02 1.90735e-07
      vertex -0.290284 7.025 -0.0069397
      vertex -0.30968 -7.02 1.90735e-07
    endloop
  endfacet
  facet normal -0.336885 0 -0.941546
    outer loop
      vertex -0.290284 7.025 -0.0069397
      vertex -0.30968 7.02 1.90735e-07
      vertex -0.30968 7.025 1.90735e-07
    endloop
  endfacet
  facet normal 0.671553 0 -0.740957
    outer loop
      vertex 0.634393 -7.02 0.17699
      vertex 0.707107 7.02 0.242893
      vertex 0.707107 -7.02 0.242893
    endloop
  endfacet
  facet normal 0.671553 0 -0.740957
    outer loop
      vertex 0.707107 7.02 0.242893
      vertex 0.634393 -7.02 0.17699
      vertex 0.634393 7.02 0.17699
    endloop
  endfacet
  facet normal 0 -1 0
    outer loop
      vertex -0.19509 -7.025 -0.0307844
      vertex -0.30968 -7.025 1.90735e-07
      vertex -0.290284 -7.025 -0.0069397
    endloop
  endfacet
  facet normal 0 -1 0
    outer loop
      vertex -0.30968 -7.025 1.90735e-07
      vertex -0.19509 -7.025 -0.0307844
      vertex 0.30968 -7.025 1.90735e-07
    endloop
  endfacet
  facet normal 0 -1 0
    outer loop
      vertex 0.19509 -7.025 -0.0307844
      vertex 0.30968 -7.025 1.90735e-07
      vertex -0.19509 -7.025 -0.0307844
    endloop
  endfacet
  facet normal 0 -1 0
    outer loop
      vertex 0.30968 -7.025 1.90735e-07
      vertex 0.19509 -7.025 -0.0307844
      vertex 0.290284 -7.025 -0.0069397
    endloop
  endfacet
  facet normal 0 -1 0
    outer loop
      vertex -0.0980167 -7.025 -0.0451839
      vertex 0.19509 -7.025 -0.0307844
      vertex -0.19509 -7.025 -0.0307844
    endloop
  endfacet
  facet normal 0 -1 0
    outer loop
      vertex -0.0980167 -7.025 -0.0451839
      vertex 0.0980167 -7.025 -0.0451839
      vertex 0.19509 -7.025 -0.0307844
    endloop
  endfacet
  facet normal -0 -1 0
    outer loop
      vertex 0.0980167 -7.025 -0.0451839
      vertex -0.0980167 -7.025 -0.0451839
      vertex 0 -7.025 -0.05
    endloop
  endfacet
  facet normal 0 -1 0
    outer loop
      vertex 0.95 -7.025 1.25968
      vertex 0.980784 -7.025 1.14509
      vertex 0.95694 -7.025 1.24028
    endloop
  endfacet
  facet normal 0 -1 0
    outer loop
      vertex 0.95 -7.025 1.25968
      vertex 0.995184 -7.025 1.04802
      vertex 0.980784 -7.025 1.14509
    endloop
  endfacet
  facet normal 0 -1 0
    outer loop
      vertex 0.95 -7.025 1.25968
      vertex 1 -7.025 0.95
      vertex 0.995184 -7.025 1.04802
    endloop
  endfacet
  facet normal 0 -1 0
    outer loop
      vertex 0.95 -7.025 1.25968
      vertex 0.995184 -7.025 0.851983
      vertex 1 -7.025 0.95
    endloop
  endfacet
  facet normal 0 -1 0
    outer loop
      vertex 0.95 -7.025 1.25968
      vertex 0.980784 -7.025 0.75491
      vertex 0.995184 -7.025 0.851983
    endloop
  endfacet
  facet normal 0 -1 0
    outer loop
      vertex 0.95 -7.025 0.64032
      vertex 0.980784 -7.025 0.75491
      vertex 0.95 -7.025 1.25968
    endloop
  endfacet
  facet normal 0 -1 0
    outer loop
      vertex 0.980784 -7.025 0.75491
      vertex 0.95 -7.025 0.64032
      vertex 0.95694 -7.025 0.659716
    endloop
  endfacet
  facet normal 0 -1 0
    outer loop
      vertex -0.980784 -7.025 1.14509
      vertex -0.95 -7.025 1.25968
      vertex -0.95694 -7.025 1.24028
    endloop
  endfacet
  facet normal 0 -1 0
    outer loop
      vertex -0.995184 -7.025 1.04802
      vertex -0.95 -7.025 1.25968
      vertex -0.980784 -7.025 1.14509
    endloop
  endfacet
  facet normal 0 -1 0
    outer loop
      vertex -1 -7.025 0.95
      vertex -0.95 -7.025 1.25968
      vertex -0.995184 -7.025 1.04802
    endloop
  endfacet
  facet normal 0 -1 0
    outer loop
      vertex -0.995184 -7.025 0.851983
      vertex -0.95 -7.025 1.25968
      vertex -1 -7.025 0.95
    endloop
  endfacet
  facet normal 0 -1 0
    outer loop
      vertex -0.980784 -7.025 0.75491
      vertex -0.95 -7.025 1.25968
      vertex -0.995184 -7.025 0.851983
    endloop
  endfacet
  facet normal 0 -1 0
    outer loop
      vertex -0.95 -7.025 0.64032
      vertex -0.980784 -7.025 0.75491
      vertex -0.95694 -7.025 0.659716
    endloop
  endfacet
  facet normal 0 -1 0
    outer loop
      vertex -0.980784 -7.025 0.75491
      vertex -0.95 -7.025 0.64032
      vertex -0.95 -7.025 1.25968
    endloop
  endfacet
  facet normal 0 -1 0
    outer loop
      vertex -0.0980167 -7.025 1.94518
      vertex 0.0980167 -7.025 1.94518
      vertex 0 -7.025 1.95
    endloop
  endfacet
  facet normal 0 -1 0
    outer loop
      vertex -0.19509 -7.025 1.93078
      vertex 0.0980167 -7.025 1.94518
      vertex -0.0980167 -7.025 1.94518
    endloop
  endfacet
  facet normal 0 -1 0
    outer loop
      vertex -0.19509 -7.025 1.93078
      vertex 0.19509 -7.025 1.93078
      vertex 0.0980167 -7.025 1.94518
    endloop
  endfacet
  facet normal 0 -1 0
    outer loop
      vertex -0.30968 -7.025 1.9
      vertex -0.19509 -7.025 1.93078
      vertex -0.290284 -7.025 1.90694
    endloop
  endfacet
  facet normal 0 -1 -0
    outer loop
      vertex -0.19509 -7.025 1.93078
      vertex -0.30968 -7.025 1.9
      vertex 0.19509 -7.025 1.93078
    endloop
  endfacet
  facet normal 0 -1 0
    outer loop
      vertex 0.30968 -7.025 1.9
      vertex 0.19509 -7.025 1.93078
      vertex -0.30968 -7.025 1.9
    endloop
  endfacet
  facet normal 0 -1 0
    outer loop
      vertex 0.19509 -7.025 1.93078
      vertex 0.30968 -7.025 1.9
      vertex 0.290284 -7.025 1.90694
    endloop
  endfacet
  facet normal 1 0 0
    outer loop
      vertex 0.95 8.42 1.9
      vertex 0.95 7.025 1.25968
      vertex 0.95 8.42 1.90735e-07
    endloop
  endfacet
  facet normal 1 -0 0
    outer loop
      vertex 0.95 7.02 1.9
      vertex 0.95 7.025 1.25968
      vertex 0.95 8.42 1.9
    endloop
  endfacet
  facet normal 1 0 0
    outer loop
      vertex 0.95 7.025 1.25968
      vertex 0.95 7.02 1.9
      vertex 0.95 7.02 1.25968
    endloop
  endfacet
  facet normal 1 -0 0
    outer loop
      vertex 0.95 7.025 0.64032
      vertex 0.95 8.42 1.90735e-07
      vertex 0.95 7.025 1.25968
    endloop
  endfacet
  facet normal 1 0 0
    outer loop
      vertex 0.95 7.02 1.90735e-07
      vertex 0.95 7.025 0.64032
      vertex 0.95 7.02 0.64032
    endloop
  endfacet
  facet normal 1 0 0
    outer loop
      vertex 0.95 7.025 0.64032
      vertex 0.95 7.02 1.90735e-07
      vertex 0.95 8.42 1.90735e-07
    endloop
  endfacet
  facet normal 0 0 1
    outer loop
      vertex 0.95 8.42 1.9
      vertex 0.30968 7.025 1.9
      vertex 0.95 7.02 1.9
    endloop
  endfacet
  facet normal 0 0 1
    outer loop
      vertex 0.95 8.42 1.9
      vertex -0.30968 7.025 1.9
      vertex 0.30968 7.025 1.9
    endloop
  endfacet
  facet normal -0 0 1
    outer loop
      vertex -0.95 8.42 1.9
      vertex -0.30968 7.025 1.9
      vertex 0.95 8.42 1.9
    endloop
  endfacet
  facet normal 0 0 1
    outer loop
      vertex -0.95 7.02 1.9
      vertex -0.30968 7.025 1.9
      vertex -0.95 8.42 1.9
    endloop
  endfacet
  facet normal 0 0 1
    outer loop
      vertex -0.30968 7.025 1.9
      vertex -0.95 7.02 1.9
      vertex -0.30968 7.02 1.9
    endloop
  endfacet
  facet normal 0 0 1
    outer loop
      vertex 0.95 7.02 1.9
      vertex 0.30968 7.025 1.9
      vertex 0.30968 7.02 1.9
    endloop
  endfacet
  facet normal 0 0 -1
    outer loop
      vertex -0.30968 7.02 1.90735e-07
      vertex -0.95 7.02 1.90735e-07
      vertex -0.30968 7.025 1.90735e-07
    endloop
  endfacet
  facet normal 0 0 -1
    outer loop
      vertex 0.30968 7.025 1.90735e-07
      vertex 0.95 7.02 1.90735e-07
      vertex 0.30968 7.02 1.90735e-07
    endloop
  endfacet
  facet normal 0 0 -1
    outer loop
      vertex 0.95 7.02 1.90735e-07
      vertex 0.30968 7.025 1.90735e-07
      vertex 0.95 8.42 1.90735e-07
    endloop
  endfacet
  facet normal 0 0 -1
    outer loop
      vertex -0.30968 7.025 1.90735e-07
      vertex 0.95 8.42 1.90735e-07
      vertex 0.30968 7.025 1.90735e-07
    endloop
  endfacet
  facet normal 0 0 -1
    outer loop
      vertex -0.95 8.42 1.90735e-07
      vertex -0.30968 7.025 1.90735e-07
      vertex -0.95 7.02 1.90735e-07
    endloop
  endfacet
  facet normal 0 0 -1
    outer loop
      vertex -0.30968 7.025 1.90735e-07
      vertex -0.95 8.42 1.90735e-07
      vertex 0.95 8.42 1.90735e-07
    endloop
  endfacet
  facet normal -1 0 0
    outer loop
      vertex -0.95 8.42 1.90735e-07
      vertex -0.95 7.025 0.64032
      vertex -0.95 8.42 1.9
    endloop
  endfacet
  facet normal -1 0 0
    outer loop
      vertex -0.95 7.02 1.90735e-07
      vertex -0.95 7.025 0.64032
      vertex -0.95 8.42 1.90735e-07
    endloop
  endfacet
  facet normal -1 -0 0
    outer loop
      vertex -0.95 7.025 0.64032
      vertex -0.95 7.02 1.90735e-07
      vertex -0.95 7.02 0.64032
    endloop
  endfacet
  facet normal -1 0 0
    outer loop
      vertex -0.95 7.025 1.25968
      vertex -0.95 8.42 1.9
      vertex -0.95 7.025 0.64032
    endloop
  endfacet
  facet normal -1 0 0
    outer loop
      vertex -0.95 7.02 1.9
      vertex -0.95 7.025 1.25968
      vertex -0.95 7.02 1.25968
    endloop
  endfacet
  facet normal -1 0 0
    outer loop
      vertex -0.95 7.025 1.25968
      vertex -0.95 7.02 1.9
      vertex -0.95 8.42 1.9
    endloop
  endfacet
  facet normal 0 1 -0
    outer loop
      vertex 0.95 8.42 1.90735e-07
      vertex -0.95 8.42 1.9
      vertex 0.95 8.42 1.9
    endloop
  endfacet
  facet normal 0 1 0
    outer loop
      vertex -0.95 8.42 1.9
      vertex 0.95 8.42 1.90735e-07
      vertex -0.95 8.42 1.90735e-07
    endloop
  endfacet
  facet normal 0 -1 0
    outer loop
      vertex -0.95 7.02 1.9
      vertex -0.382683 7.02 1.87388
      vertex -0.30968 7.02 1.9
    endloop
  endfacet
  facet normal 0 -1 0
    outer loop
      vertex -0.95 7.02 1.9
      vertex -0.471396 7.02 1.83192
      vertex -0.382683 7.02 1.87388
    endloop
  endfacet
  facet normal 0 -1 0
    outer loop
      vertex -0.95 7.02 1.9
      vertex -0.55557 7.02 1.78147
      vertex -0.471396 7.02 1.83192
    endloop
  endfacet
  facet normal 0 -1 0
    outer loop
      vertex -0.95 7.02 1.9
      vertex -0.634393 7.02 1.72301
      vertex -0.55557 7.02 1.78147
    endloop
  endfacet
  facet normal 0 -1 0
    outer loop
      vertex -0.95 7.02 1.9
      vertex -0.707107 7.02 1.65711
      vertex -0.634393 7.02 1.72301
    endloop
  endfacet
  facet normal 0 -1 0
    outer loop
      vertex -0.95 7.02 1.9
      vertex -0.77301 7.02 1.58439
      vertex -0.707107 7.02 1.65711
    endloop
  endfacet
  facet normal 0 -1 0
    outer loop
      vertex -0.95 7.02 1.9
      vertex -0.83147 7.02 1.50557
      vertex -0.77301 7.02 1.58439
    endloop
  endfacet
  facet normal 0 -1 0
    outer loop
      vertex -0.95 7.02 1.9
      vertex -0.881921 7.02 1.4214
      vertex -0.83147 7.02 1.50557
    endloop
  endfacet
  facet normal 0 -1 0
    outer loop
      vertex -0.95 7.02 1.9
      vertex -0.923879 7.02 1.33268
      vertex -0.881921 7.02 1.4214
    endloop
  endfacet
  facet normal -0 -1 0
    outer loop
      vertex -0.923879 7.02 1.33268
      vertex -0.95 7.02 1.9
      vertex -0.95 7.02 1.25968
    endloop
  endfacet
  facet normal 0 -1 0
    outer loop
      vertex 0.382683 7.02 1.87388
      vertex 0.95 7.02 1.9
      vertex 0.30968 7.02 1.9
    endloop
  endfacet
  facet normal 0 -1 0
    outer loop
      vertex 0.471396 7.02 1.83192
      vertex 0.95 7.02 1.9
      vertex 0.382683 7.02 1.87388
    endloop
  endfacet
  facet normal 0 -1 0
    outer loop
      vertex 0.55557 7.02 1.78147
      vertex 0.95 7.02 1.9
      vertex 0.471396 7.02 1.83192
    endloop
  endfacet
  facet normal 0 -1 0
    outer loop
      vertex 0.634393 7.02 1.72301
      vertex 0.95 7.02 1.9
      vertex 0.55557 7.02 1.78147
    endloop
  endfacet
  facet normal 0 -1 0
    outer loop
      vertex 0.707107 7.02 1.65711
      vertex 0.95 7.02 1.9
      vertex 0.634393 7.02 1.72301
    endloop
  endfacet
  facet normal 0 -1 0
    outer loop
      vertex 0.77301 7.02 1.58439
      vertex 0.95 7.02 1.9
      vertex 0.707107 7.02 1.65711
    endloop
  endfacet
  facet normal 0 -1 0
    outer loop
      vertex 0.83147 7.02 1.50557
      vertex 0.95 7.02 1.9
      vertex 0.77301 7.02 1.58439
    endloop
  endfacet
  facet normal 0 -1 0
    outer loop
      vertex 0.881921 7.02 1.4214
      vertex 0.95 7.02 1.9
      vertex 0.83147 7.02 1.50557
    endloop
  endfacet
  facet normal 0 -1 0
    outer loop
      vertex 0.923879 7.02 1.33268
      vertex 0.95 7.02 1.9
      vertex 0.881921 7.02 1.4214
    endloop
  endfacet
  facet normal 0 -1 -0
    outer loop
      vertex 0.95 7.02 1.9
      vertex 0.923879 7.02 1.33268
      vertex 0.95 7.02 1.25968
    endloop
  endfacet
  facet normal 0 -1 0
    outer loop
      vertex 0.923879 7.02 0.567317
      vertex 0.95 7.02 1.90735e-07
      vertex 0.95 7.02 0.64032
    endloop
  endfacet
  facet normal 0 -1 0
    outer loop
      vertex 0.881921 7.02 0.478604
      vertex 0.95 7.02 1.90735e-07
      vertex 0.923879 7.02 0.567317
    endloop
  endfacet
  facet normal 0 -1 0
    outer loop
      vertex 0.83147 7.02 0.39443
      vertex 0.95 7.02 1.90735e-07
      vertex 0.881921 7.02 0.478604
    endloop
  endfacet
  facet normal 0 -1 0
    outer loop
      vertex 0.77301 7.02 0.315607
      vertex 0.95 7.02 1.90735e-07
      vertex 0.83147 7.02 0.39443
    endloop
  endfacet
  facet normal 0 -1 0
    outer loop
      vertex 0.707107 7.02 0.242893
      vertex 0.95 7.02 1.90735e-07
      vertex 0.77301 7.02 0.315607
    endloop
  endfacet
  facet normal 0 -1 0
    outer loop
      vertex 0.634393 7.02 0.17699
      vertex 0.95 7.02 1.90735e-07
      vertex 0.707107 7.02 0.242893
    endloop
  endfacet
  facet normal 0 -1 0
    outer loop
      vertex 0.55557 7.02 0.11853
      vertex 0.95 7.02 1.90735e-07
      vertex 0.634393 7.02 0.17699
    endloop
  endfacet
  facet normal 0 -1 0
    outer loop
      vertex 0.471396 7.02 0.0680792
      vertex 0.95 7.02 1.90735e-07
      vertex 0.55557 7.02 0.11853
    endloop
  endfacet
  facet normal 0 -1 0
    outer loop
      vertex 0.382683 7.02 0.0261213
      vertex 0.95 7.02 1.90735e-07
      vertex 0.471396 7.02 0.0680792
    endloop
  endfacet
  facet normal 0 -1 0
    outer loop
      vertex 0.95 7.02 1.90735e-07
      vertex 0.382683 7.02 0.0261213
      vertex 0.30968 7.02 1.90735e-07
    endloop
  endfacet
  facet normal 0 -1 0
    outer loop
      vertex -0.95 7.02 1.90735e-07
      vertex -0.923879 7.02 0.567317
      vertex -0.95 7.02 0.64032
    endloop
  endfacet
  facet normal 0 -1 0
    outer loop
      vertex -0.95 7.02 1.90735e-07
      vertex -0.881921 7.02 0.478604
      vertex -0.923879 7.02 0.567317
    endloop
  endfacet
  facet normal 0 -1 0
    outer loop
      vertex -0.95 7.02 1.90735e-07
      vertex -0.83147 7.02 0.39443
      vertex -0.881921 7.02 0.478604
    endloop
  endfacet
  facet normal 0 -1 0
    outer loop
      vertex -0.95 7.02 1.90735e-07
      vertex -0.77301 7.02 0.315607
      vertex -0.83147 7.02 0.39443
    endloop
  endfacet
  facet normal 0 -1 0
    outer loop
      vertex -0.95 7.02 1.90735e-07
      vertex -0.707107 7.02 0.242893
      vertex -0.77301 7.02 0.315607
    endloop
  endfacet
  facet normal 0 -1 0
    outer loop
      vertex -0.95 7.02 1.90735e-07
      vertex -0.634393 7.02 0.17699
      vertex -0.707107 7.02 0.242893
    endloop
  endfacet
  facet normal 0 -1 0
    outer loop
      vertex -0.95 7.02 1.90735e-07
      vertex -0.55557 7.02 0.11853
      vertex -0.634393 7.02 0.17699
    endloop
  endfacet
  facet normal 0 -1 0
    outer loop
      vertex -0.95 7.02 1.90735e-07
      vertex -0.471396 7.02 0.0680792
      vertex -0.55557 7.02 0.11853
    endloop
  endfacet
  facet normal 0 -1 0
    outer loop
      vertex -0.95 7.02 1.90735e-07
      vertex -0.382683 7.02 0.0261213
      vertex -0.471396 7.02 0.0680792
    endloop
  endfacet
  facet normal 0 -1 -0
    outer loop
      vertex -0.382683 7.02 0.0261213
      vertex -0.95 7.02 1.90735e-07
      vertex -0.30968 7.02 1.90735e-07
    endloop
  endfacet
  facet normal 1 0 0
    outer loop
      vertex 0.95 -7.02 1.9
      vertex 0.95 -7.025 1.25968
      vertex 0.95 -7.02 1.25968
    endloop
  endfacet
  facet normal 1 0 0
    outer loop
      vertex 0.95 -7.025 1.25968
      vertex 0.95 -8.42 1.9
      vertex 0.95 -7.025 0.64032
    endloop
  endfacet
  facet normal 1 -0 0
    outer loop
      vertex 0.95 -8.42 1.9
      vertex 0.95 -7.025 1.25968
      vertex 0.95 -7.02 1.9
    endloop
  endfacet
  facet normal 1 -0 0
    outer loop
      vertex 0.95 -7.025 0.64032
      vertex 0.95 -7.02 1.90735e-07
      vertex 0.95 -7.02 0.64032
    endloop
  endfacet
  facet normal 1 0 0
    outer loop
      vertex 0.95 -8.42 1.90735e-07
      vertex 0.95 -7.025 0.64032
      vertex 0.95 -8.42 1.9
    endloop
  endfacet
  facet normal 1 0 0
    outer loop
      vertex 0.95 -7.025 0.64032
      vertex 0.95 -8.42 1.90735e-07
      vertex 0.95 -7.02 1.90735e-07
    endloop
  endfacet
  facet normal 0 0 1
    outer loop
      vertex -0.30968 -7.02 1.9
      vertex -0.95 -7.02 1.9
      vertex -0.30968 -7.025 1.9
    endloop
  endfacet
  facet normal 0 0 1
    outer loop
      vertex 0.30968 -7.025 1.9
      vertex 0.95 -7.02 1.9
      vertex 0.30968 -7.02 1.9
    endloop
  endfacet
  facet normal 0 0 1
    outer loop
      vertex 0.95 -7.02 1.9
      vertex 0.30968 -7.025 1.9
      vertex 0.95 -8.42 1.9
    endloop
  endfacet
  facet normal -0 0 1
    outer loop
      vertex -0.30968 -7.025 1.9
      vertex 0.95 -8.42 1.9
      vertex 0.30968 -7.025 1.9
    endloop
  endfacet
  facet normal 0 0 1
    outer loop
      vertex -0.95 -8.42 1.9
      vertex -0.30968 -7.025 1.9
      vertex -0.95 -7.02 1.9
    endloop
  endfacet
  facet normal 0 0 1
    outer loop
      vertex -0.30968 -7.025 1.9
      vertex -0.95 -8.42 1.9
      vertex 0.95 -8.42 1.9
    endloop
  endfacet
  facet normal 0 0 -1
    outer loop
      vertex 0.95 -8.42 1.90735e-07
      vertex 0.30968 -7.025 1.90735e-07
      vertex 0.95 -7.02 1.90735e-07
    endloop
  endfacet
  facet normal 0 0 -1
    outer loop
      vertex 0.95 -8.42 1.90735e-07
      vertex -0.30968 -7.025 1.90735e-07
      vertex 0.30968 -7.025 1.90735e-07
    endloop
  endfacet
  facet normal 0 0 -1
    outer loop
      vertex -0.95 -8.42 1.90735e-07
      vertex -0.30968 -7.025 1.90735e-07
      vertex 0.95 -8.42 1.90735e-07
    endloop
  endfacet
  facet normal 0 0 -1
    outer loop
      vertex -0.95 -7.02 1.90735e-07
      vertex -0.30968 -7.025 1.90735e-07
      vertex -0.95 -8.42 1.90735e-07
    endloop
  endfacet
  facet normal 0 0 -1
    outer loop
      vertex -0.30968 -7.025 1.90735e-07
      vertex -0.95 -7.02 1.90735e-07
      vertex -0.30968 -7.02 1.90735e-07
    endloop
  endfacet
  facet normal -0 0 -1
    outer loop
      vertex 0.95 -7.02 1.90735e-07
      vertex 0.30968 -7.025 1.90735e-07
      vertex 0.30968 -7.02 1.90735e-07
    endloop
  endfacet
  facet normal -1 0 0
    outer loop
      vertex -0.95 -7.02 1.90735e-07
      vertex -0.95 -7.025 0.64032
      vertex -0.95 -7.02 0.64032
    endloop
  endfacet
  facet normal -1 -0 0
    outer loop
      vertex -0.95 -7.025 0.64032
      vertex -0.95 -8.42 1.90735e-07
      vertex -0.95 -7.025 1.25968
    endloop
  endfacet
  facet normal -1 0 0
    outer loop
      vertex -0.95 -8.42 1.90735e-07
      vertex -0.95 -7.025 0.64032
      vertex -0.95 -7.02 1.90735e-07
    endloop
  endfacet
  facet normal -1 0 0
    outer loop
      vertex -0.95 -7.025 1.25968
      vertex -0.95 -7.02 1.9
      vertex -0.95 -7.02 1.25968
    endloop
  endfacet
  facet normal -1 0 0
    outer loop
      vertex -0.95 -8.42 1.9
      vertex -0.95 -7.025 1.25968
      vertex -0.95 -8.42 1.90735e-07
    endloop
  endfacet
  facet normal -1 0 0
    outer loop
      vertex -0.95 -7.025 1.25968
      vertex -0.95 -8.42 1.9
      vertex -0.95 -7.02 1.9
    endloop
  endfacet
  facet normal 0 1 -0
    outer loop
      vertex -0.382683 -7.02 1.87388
      vertex -0.95 -7.02 1.9
      vertex -0.30968 -7.02 1.9
    endloop
  endfacet
  facet normal 0 1 -0
    outer loop
      vertex -0.471396 -7.02 1.83192
      vertex -0.95 -7.02 1.9
      vertex -0.382683 -7.02 1.87388
    endloop
  endfacet
  facet normal 0 1 -0
    outer loop
      vertex -0.55557 -7.02 1.78147
      vertex -0.95 -7.02 1.9
      vertex -0.471396 -7.02 1.83192
    endloop
  endfacet
  facet normal 0 1 -0
    outer loop
      vertex -0.634393 -7.02 1.72301
      vertex -0.95 -7.02 1.9
      vertex -0.55557 -7.02 1.78147
    endloop
  endfacet
  facet normal 0 1 -0
    outer loop
      vertex -0.707107 -7.02 1.65711
      vertex -0.95 -7.02 1.9
      vertex -0.634393 -7.02 1.72301
    endloop
  endfacet
  facet normal 0 1 -0
    outer loop
      vertex -0.77301 -7.02 1.58439
      vertex -0.95 -7.02 1.9
      vertex -0.707107 -7.02 1.65711
    endloop
  endfacet
  facet normal 0 1 -0
    outer loop
      vertex -0.83147 -7.02 1.50557
      vertex -0.95 -7.02 1.9
      vertex -0.77301 -7.02 1.58439
    endloop
  endfacet
  facet normal 0 1 -0
    outer loop
      vertex -0.881921 -7.02 1.4214
      vertex -0.95 -7.02 1.9
      vertex -0.83147 -7.02 1.50557
    endloop
  endfacet
  facet normal 0 1 -0
    outer loop
      vertex -0.923879 -7.02 1.33268
      vertex -0.95 -7.02 1.9
      vertex -0.881921 -7.02 1.4214
    endloop
  endfacet
  facet normal 0 1 0
    outer loop
      vertex -0.95 -7.02 1.9
      vertex -0.923879 -7.02 1.33268
      vertex -0.95 -7.02 1.25968
    endloop
  endfacet
  facet normal 0 1 0
    outer loop
      vertex 0.95 -7.02 1.9
      vertex 0.382683 -7.02 1.87388
      vertex 0.30968 -7.02 1.9
    endloop
  endfacet
  facet normal 0 1 0
    outer loop
      vertex 0.95 -7.02 1.9
      vertex 0.471396 -7.02 1.83192
      vertex 0.382683 -7.02 1.87388
    endloop
  endfacet
  facet normal 0 1 0
    outer loop
      vertex 0.95 -7.02 1.9
      vertex 0.55557 -7.02 1.78147
      vertex 0.471396 -7.02 1.83192
    endloop
  endfacet
  facet normal 0 1 0
    outer loop
      vertex 0.95 -7.02 1.9
      vertex 0.634393 -7.02 1.72301
      vertex 0.55557 -7.02 1.78147
    endloop
  endfacet
  facet normal 0 1 0
    outer loop
      vertex 0.95 -7.02 1.9
      vertex 0.707107 -7.02 1.65711
      vertex 0.634393 -7.02 1.72301
    endloop
  endfacet
  facet normal 0 1 0
    outer loop
      vertex 0.95 -7.02 1.9
      vertex 0.77301 -7.02 1.58439
      vertex 0.707107 -7.02 1.65711
    endloop
  endfacet
  facet normal 0 1 0
    outer loop
      vertex 0.95 -7.02 1.9
      vertex 0.83147 -7.02 1.50557
      vertex 0.77301 -7.02 1.58439
    endloop
  endfacet
  facet normal 0 1 0
    outer loop
      vertex 0.95 -7.02 1.9
      vertex 0.881921 -7.02 1.4214
      vertex 0.83147 -7.02 1.50557
    endloop
  endfacet
  facet normal 0 1 0
    outer loop
      vertex 0.95 -7.02 1.9
      vertex 0.923879 -7.02 1.33268
      vertex 0.881921 -7.02 1.4214
    endloop
  endfacet
  facet normal -0 1 0
    outer loop
      vertex 0.923879 -7.02 1.33268
      vertex 0.95 -7.02 1.9
      vertex 0.95 -7.02 1.25968
    endloop
  endfacet
  facet normal 0 1 -0
    outer loop
      vertex 0.95 -7.02 1.90735e-07
      vertex 0.923879 -7.02 0.567317
      vertex 0.95 -7.02 0.64032
    endloop
  endfacet
  facet normal 0 1 0
    outer loop
      vertex 0.95 -7.02 1.90735e-07
      vertex 0.881921 -7.02 0.478604
      vertex 0.923879 -7.02 0.567317
    endloop
  endfacet
  facet normal 0 1 0
    outer loop
      vertex 0.95 -7.02 1.90735e-07
      vertex 0.83147 -7.02 0.39443
      vertex 0.881921 -7.02 0.478604
    endloop
  endfacet
  facet normal 0 1 0
    outer loop
      vertex 0.95 -7.02 1.90735e-07
      vertex 0.77301 -7.02 0.315607
      vertex 0.83147 -7.02 0.39443
    endloop
  endfacet
  facet normal 0 1 0
    outer loop
      vertex 0.95 -7.02 1.90735e-07
      vertex 0.707107 -7.02 0.242893
      vertex 0.77301 -7.02 0.315607
    endloop
  endfacet
  facet normal 0 1 0
    outer loop
      vertex 0.95 -7.02 1.90735e-07
      vertex 0.634393 -7.02 0.17699
      vertex 0.707107 -7.02 0.242893
    endloop
  endfacet
  facet normal 0 1 0
    outer loop
      vertex 0.95 -7.02 1.90735e-07
      vertex 0.55557 -7.02 0.11853
      vertex 0.634393 -7.02 0.17699
    endloop
  endfacet
  facet normal 0 1 0
    outer loop
      vertex 0.95 -7.02 1.90735e-07
      vertex 0.471396 -7.02 0.0680792
      vertex 0.55557 -7.02 0.11853
    endloop
  endfacet
  facet normal 0 1 0
    outer loop
      vertex 0.95 -7.02 1.90735e-07
      vertex 0.382683 -7.02 0.0261213
      vertex 0.471396 -7.02 0.0680792
    endloop
  endfacet
  facet normal 0 1 0
    outer loop
      vertex 0.382683 -7.02 0.0261213
      vertex 0.95 -7.02 1.90735e-07
      vertex 0.30968 -7.02 1.90735e-07
    endloop
  endfacet
  facet normal 0 1 0
    outer loop
      vertex -0.923879 -7.02 0.567317
      vertex -0.95 -7.02 1.90735e-07
      vertex -0.95 -7.02 0.64032
    endloop
  endfacet
  facet normal 0 1 0
    outer loop
      vertex -0.881921 -7.02 0.478604
      vertex -0.95 -7.02 1.90735e-07
      vertex -0.923879 -7.02 0.567317
    endloop
  endfacet
  facet normal 0 1 0
    outer loop
      vertex -0.83147 -7.02 0.39443
      vertex -0.95 -7.02 1.90735e-07
      vertex -0.881921 -7.02 0.478604
    endloop
  endfacet
  facet normal 0 1 0
    outer loop
      vertex -0.77301 -7.02 0.315607
      vertex -0.95 -7.02 1.90735e-07
      vertex -0.83147 -7.02 0.39443
    endloop
  endfacet
  facet normal 0 1 0
    outer loop
      vertex -0.707107 -7.02 0.242893
      vertex -0.95 -7.02 1.90735e-07
      vertex -0.77301 -7.02 0.315607
    endloop
  endfacet
  facet normal 0 1 0
    outer loop
      vertex -0.634393 -7.02 0.17699
      vertex -0.95 -7.02 1.90735e-07
      vertex -0.707107 -7.02 0.242893
    endloop
  endfacet
  facet normal 0 1 0
    outer loop
      vertex -0.55557 -7.02 0.11853
      vertex -0.95 -7.02 1.90735e-07
      vertex -0.634393 -7.02 0.17699
    endloop
  endfacet
  facet normal 0 1 0
    outer loop
      vertex -0.471396 -7.02 0.0680792
      vertex -0.95 -7.02 1.90735e-07
      vertex -0.55557 -7.02 0.11853
    endloop
  endfacet
  facet normal 0 1 0
    outer loop
      vertex -0.382683 -7.02 0.0261213
      vertex -0.95 -7.02 1.90735e-07
      vertex -0.471396 -7.02 0.0680792
    endloop
  endfacet
  facet normal 0 1 0
    outer loop
      vertex -0.95 -7.02 1.90735e-07
      vertex -0.382683 -7.02 0.0261213
      vertex -0.30968 -7.02 1.90735e-07
    endloop
  endfacet
  facet normal 0 -1 0
    outer loop
      vertex -0.95 -8.42 1.90735e-07
      vertex 0.95 -8.42 1.9
      vertex -0.95 -8.42 1.9
    endloop
  endfacet
  facet normal 0 -1 -0
    outer loop
      vertex 0.95 -8.42 1.9
      vertex -0.95 -8.42 1.90735e-07
      vertex 0.95 -8.42 1.90735e-07
    endloop
  endfacet
endsolid OpenSCAD_Model
